<?xml version="1.0" standalone="no"?>
<!DOCTYPE svg PUBLIC "-//W3C//DTD SVG 20010904//EN"
 "http://www.w3.org/TR/2001/REC-SVG-20010904/DTD/svg10.dtd">
<svg version="1.0" xmlns="http://www.w3.org/2000/svg"
 width="100px" height="100px" viewBox="0 0 1280.000000 640.000000"
 preserveAspectRatio="xMidYMid meet">
<metadata>
Created by potrace 1.15, written by Peter Selinger 2001-2017
</metadata>
<g transform="translate(0.000000,640.000000) scale(0.100000,-0.100000)" stroke="none">
<path d="M2862 5571 c-380 -306 -691 -562 -692 -568 0 -9 10 -11 32 -6 29 6
24 -2 -77 -120 -60 -70 -115 -127 -123 -127 -21 0 -229 -215 -305 -315 -93
-124 -140 -220 -145 -299 -5 -78 7 -108 59 -146 74 -53 210 -83 439 -96 l125
-7 133 -60 133 -60 80 -115 c45 -63 77 -117 73 -122 -5 -4 -70 -13 -144 -19
-350 -31 -540 -68 -745 -146 -135 -52 -346 -178 -327 -196 4 -4 42 -14 85 -23
42 -10 77 -21 77 -25 0 -4 -21 -23 -47 -42 -73 -52 -228 -205 -285 -281 -126
-170 -207 -344 -250 -538 -30 -139 -33 -408 -5 -540 85 -395 326 -724 689
-939 381 -225 826 -270 1254 -126 211 70 403 192 574 364 168 169 270 331 339
536 52 158 66 243 66 425 0 175 -13 259 -60 409 -13 41 -22 78 -19 80 5 5 234
-110 269 -135 10 -8 19 -48 29 -132 12 -102 12 -130 1 -174 -61 -245 -175
-772 -169 -778 9 -8 396 -60 446 -60 14 0 51 20 84 45 32 24 64 45 69 45 6 0
24 -16 40 -35 l30 -35 610 -11 610 -12 110 72 c60 39 114 70 120 68 5 -2 25
-32 44 -66 l34 -64 301 7 c165 4 472 11 681 16 209 6 430 10 490 10 110 1 110
1 87 20 -13 10 -135 87 -273 171 -137 83 -248 156 -246 162 5 16 153 63 362
113 104 26 269 67 365 92 96 25 188 45 203 46 26 1 30 -6 70 -100 139 -325
390 -599 706 -771 230 -126 391 -180 621 -209 328 -41 653 16 928 162 301 160
507 341 665 584 99 154 169 321 214 510 36 156 43 410 15 575 -53 308 -197
587 -422 815 -52 53 -133 125 -180 159 -47 35 -86 67 -88 71 -2 5 96 77 217
161 l220 154 6 55 c8 70 -8 152 -40 206 -47 80 -132 132 -315 193 l-94 31
-398 -265 -398 -265 -105 0 c-120 0 -265 -14 -373 -36 -149 -30 -235 -60 -438
-150 -9 -4 -277 196 -327 245 -18 17 -14 22 92 123 61 58 111 108 111 112 0 3
-21 6 -47 6 -43 0 -46 1 -28 14 11 7 114 57 229 110 115 53 419 211 675 351
l466 255 340 280 c187 155 349 290 360 301 l20 21 -380 -4 -380 -5 -189 -87
c-103 -48 -190 -86 -192 -84 -1 2 73 46 166 98 160 89 208 129 143 116 -16 -3
-325 -62 -688 -131 -363 -69 -667 -128 -676 -131 -10 -3 -24 -34 -38 -87 -12
-45 -45 -136 -73 -201 -45 -104 -50 -123 -40 -148 10 -27 8 -30 -46 -71 -32
-24 -62 -46 -68 -50 -7 -4 -128 -25 -270 -47 -143 -23 -395 -63 -560 -90 -257
-43 -322 -50 -438 -50 -75 0 -136 4 -136 9 0 5 11 34 25 65 14 31 25 63 25 72
0 21 -127 228 -223 364 -104 145 -252 296 -328 333 -30 15 -91 35 -134 44
-102 20 -217 8 -418 -47 -78 -21 -210 -50 -292 -65 -336 -59 -788 -166 -994
-235 -123 -42 -181 -76 -210 -124 -23 -37 -50 -126 -44 -143 6 -16 -31 -16
-186 -3 -91 8 -227 5 -665 -15 -694 -31 -796 -37 -796 -42 0 -3 9 -18 21 -34
25 -36 11 -38 -22 -3 l-24 26 44 126 c24 70 49 136 56 147 7 11 131 82 276
157 l264 136 180 36 180 36 38 42 c21 24 68 82 105 130 l67 87 157 83 c87 46
158 85 158 88 0 4 -176 87 -566 265 l-70 33 -692 -557z m288 195 c0 -2 -8 -10
-17 -17 -16 -13 -17 -12 -4 4 13 16 21 21 21 13z m-62 -57 c-52 -71 -297 -300
-541 -507 -78 -67 -93 -75 -162 -91 -63 -15 -82 -25 -110 -55 -18 -20 -40 -36
-49 -36 -10 0 54 57 141 128 262 211 738 591 741 592 2 0 -7 -14 -20 -31z
m5323 -1919 l24 -19 -35 9 c-19 6 -36 10 -38 10 -2 0 0 5 3 10 9 15 20 12 46
-10z m22 -191 l190 -61 -103 -96 c-92 -87 -111 -99 -174 -120 -39 -13 -316
-104 -615 -203 -299 -98 -546 -178 -547 -176 -2 2 -6 47 -10 100 -4 60 -11 97
-18 97 -6 0 -53 -14 -104 -30 -85 -27 -122 -30 -122 -10 0 4 30 15 68 25 388
101 770 266 1054 455 110 74 138 89 162 85 16 -3 115 -33 219 -66z m-2618
-179 c3 -5 -1 -10 -9 -10 -8 0 -18 5 -21 10 -3 6 1 10 9 10 8 0 18 -4 21 -10z
m4395 -206 c37 -19 81 -47 99 -62 l32 -27 -45 -80 c-25 -43 -56 -103 -68 -131
-20 -50 -25 -55 -90 -84 -69 -30 -69 -30 -96 -12 -78 55 -239 112 -317 112
-24 0 -35 6 -43 24 -12 26 -33 9 256 209 173 120 150 115 272 51z m374 -337
c64 -96 110 -194 137 -293 20 -72 40 -233 30 -238 -3 -2 -26 -7 -51 -11 -25
-4 -93 -18 -152 -32 l-106 -24 -60 30 c-62 31 -72 44 -72 90 0 60 -42 162
-119 285 -13 21 -12 29 5 72 20 48 23 51 149 117 71 37 134 72 139 77 24 24
47 7 100 -73z m-7932 -37 c81 -21 260 -101 307 -138 l24 -19 -35 -60 c-20 -33
-47 -86 -62 -120 -23 -50 -34 -63 -72 -81 -24 -12 -49 -22 -55 -22 -6 0 -52
20 -102 45 -65 32 -115 49 -169 57 l-77 12 -25 46 -25 46 19 84 c10 47 21 107
25 134 l7 49 78 -6 c44 -4 116 -16 162 -27z m-440 -21 c6 -18 32 -75 57 -128
44 -89 46 -99 38 -138 -9 -39 -13 -44 -51 -54 -96 -24 -141 -44 -209 -89 -40
-27 -81 -58 -91 -69 -34 -38 -68 -27 -122 37 -27 31 -73 82 -102 113 l-53 57
26 30 c82 98 281 217 427 256 71 20 68 20 80 -15z m6808 -294 c24 8 24 10 5
-62 -18 -68 -21 -208 -5 -278 9 -42 9 -51 -4 -61 -9 -6 -86 -14 -180 -18 -91
-3 -172 -9 -180 -12 -30 -12 -53 204 -37 338 7 48 14 94 17 103 7 18 123 105
141 105 7 0 32 -29 55 -65 43 -65 58 -78 58 -50 0 29 -59 145 -77 152 -22 7
-52 43 -53 62 0 8 54 -39 120 -103 96 -94 124 -116 140 -111z m-977 -167 l-2
-213 -30 -18 c-43 -26 -210 -81 -389 -128 -108 -28 -239 -74 -419 -147 -257
-103 -263 -106 -263 -134 l0 -28 -87 0 c-49 0 -94 4 -102 9 -9 6 78 55 293
161 169 84 309 156 311 161 7 11 -51 53 -100 74 -30 12 -36 18 -25 24 8 5 112
18 230 30 118 12 225 24 238 26 20 5 22 11 22 70 l0 65 -57 1 c-40 0 -80 9
-128 29 -38 16 -64 29 -56 29 8 1 90 -17 182 -39 93 -22 176 -40 186 -40 12 0
47 47 106 140 49 77 89 140 90 140 1 0 1 -96 0 -212z m-827 147 c20 -25 34
-48 31 -51 -7 -7 -107 24 -121 37 -10 9 29 59 45 59 4 0 24 -20 45 -45z
m-4025 -36 c87 -128 136 -262 146 -401 6 -75 5 -77 -18 -82 -13 -2 -77 -15
-141 -27 l-117 -23 -44 21 c-43 21 -44 23 -55 88 -12 71 -55 174 -96 228 l-25
33 23 51 c23 49 28 53 147 115 68 36 127 63 132 61 4 -2 25 -31 48 -64z m4213
-166 c16 -5 8 -9 -31 -14 -98 -13 -463 -33 -470 -26 -4 4 17 31 46 61 l52 53
191 -33 c105 -19 200 -37 212 -41z m-5681 13 c70 -17 134 -39 143 -48 14 -14
13 -20 -9 -64 -41 -82 -58 -152 -58 -249 0 -49 5 -104 10 -122 7 -22 6 -35 -2
-41 -7 -5 -82 -11 -167 -13 l-154 -4 -9 35 c-5 19 -9 94 -9 165 -1 138 15 224
63 335 19 44 25 51 43 45 12 -3 78 -21 149 -39z m3157 -40 c0 -3 -30 -44 -67
-93 -170 -224 -265 -344 -270 -339 -3 2 27 75 66 160 39 86 71 159 71 163 0 5
-19 7 -42 5 -24 -3 -40 -1 -37 2 3 4 60 28 125 55 108 45 154 59 154 47z
m5622 -84 c45 -21 115 -51 154 -66 l72 -27 -13 -47 c-39 -149 -123 -290 -251
-422 l-92 -94 -58 50 c-33 28 -88 72 -124 99 -78 59 -78 59 -86 112 -6 41 -4
45 47 101 62 67 103 138 134 231 21 64 23 66 71 83 27 9 52 17 56 18 3 0 44
-17 90 -38z m-1446 -140 c6 -4 23 -29 39 -55 60 -103 154 -188 278 -249 101
-50 101 -55 -5 -190 -46 -58 -92 -118 -104 -134 l-21 -28 -44 19 c-119 54
-273 176 -364 290 -52 64 -101 143 -93 149 2 2 35 23 73 48 39 25 102 71 140
102 71 57 81 62 101 48z m-5885 -212 c62 -27 119 -50 126 -50 22 0 24 -20 7
-73 -43 -134 -161 -313 -260 -393 l-44 -36 -46 38 c-26 22 -71 58 -102 81 -69
53 -62 45 -72 89 -8 35 -6 41 28 79 63 67 105 136 133 215 26 73 27 75 70 86
24 7 44 12 45 13 0 1 52 -21 115 -49z m6876 -107 c26 -23 35 -44 52 -113 11
-47 29 -112 40 -145 11 -32 18 -62 15 -66 -8 -14 -175 -69 -261 -85 -92 -18
-259 -23 -354 -10 l-56 7 5 162 c4 148 6 164 26 185 19 22 26 23 86 17 88 -9
219 10 305 45 89 36 104 36 142 3z m-8168 -57 c55 -85 145 -166 237 -211 53
-26 74 -42 74 -56 0 -10 -37 -67 -82 -126 -66 -87 -87 -108 -105 -106 -45 4
-186 97 -268 178 -78 76 -155 176 -155 201 0 6 24 27 53 46 28 20 81 58 117
86 36 29 70 52 76 52 6 0 30 -29 53 -64z m5077 -31 c3 -13 4 -29 2 -35 -2 -6
-73 -44 -158 -85 -182 -86 -239 -110 -224 -95 15 15 358 240 366 240 4 0 10
-11 14 -25z m-4240 -187 c28 -19 35 -35 62 -132 16 -61 33 -119 37 -128 6 -14
-2 -22 -40 -38 -127 -55 -344 -84 -489 -66 l-56 7 0 132 c0 174 4 181 104 172
88 -8 214 13 288 48 66 31 56 31 94 5z"/>
</g>
</svg>
