<?xml version="1.0" encoding="iso-8859-1"?>
<!-- Generator: Adobe Illustrator 18.1.1, SVG Export Plug-In . SVG Version: 6.00 Build 0)  -->
<svg version="1.1" id="Capa_1" xmlns="http://www.w3.org/2000/svg" xmlns:xlink="http://www.w3.org/1999/xlink" x="0px" y="0px"
	 viewBox="0 0 612 612" width="100px" height="100px" style="enable-background:new 0 0 612 612;" xml:space="preserve">
<g>
	<path d="M598.027,379.587h-0.235V193.324c0-31.695-25.785-57.478-57.478-57.478H54.918c-20.906,0-37.916,17.01-37.916,37.916v6.662
		c0,7.718,6.254,13.973,13.973,13.973h3.834L17.29,283.55c-0.003,0.014-0.006,0.028-0.008,0.045l-0.02,0.098
		c-0.089,0.453-0.081,0.897-0.126,1.347c-0.045,0.45-0.137,0.886-0.137,1.347v0.101c0,0.014,0,0.031,0,0.045v93.055h-3.026
		C6.254,379.587,0,385.841,0,393.559v29.032c0,7.718,6.254,13.973,13.973,13.973h17.002h17.231H62.46
		c6.168,22.767,26.953,39.59,51.648,39.59s45.481-16.823,51.648-39.59H422.02c6.17,22.767,26.956,39.59,51.648,39.59
		s45.481-16.823,51.648-39.59h38.475h20.026h14.21c7.718,0,13.973-6.254,13.973-13.973v-29.032
		C612,385.841,605.746,379.587,598.027,379.587z M100.603,272.414v-78.017h66.138v78.017H100.603z M194.686,194.397h98.739v78.017
		h-98.739V194.397z M321.37,194.397h98.739v78.017H321.37V194.397z M47.96,272.414l15.331-78.017h9.367v78.017H47.96z
		 M114.109,448.206c-14.124,0-25.615-11.491-25.615-25.617c0-14.124,11.491-25.615,25.615-25.615
		c14.126,0,25.617,11.491,25.617,25.615C139.726,436.715,128.235,448.206,114.109,448.206z M473.671,448.206
		c-14.126,0-25.617-11.491-25.617-25.617c0-14.124,11.491-25.615,25.617-25.615s25.617,11.491,25.617,25.615
		C499.289,436.715,487.798,448.206,473.671,448.206z M448.054,272.414v-78.017h35.256c20.456,0,38.042,13.9,42.765,33.803
		l10.496,44.215H448.054z"/>
</g>
<g>
</g>
<g>
</g>
<g>
</g>
<g>
</g>
<g>
</g>
<g>
</g>
<g>
</g>
<g>
</g>
<g>
</g>
<g>
</g>
<g>
</g>
<g>
</g>
<g>
</g>
<g>
</g>
<g>
</g>
</svg>
