<?xml version="1.0" encoding="iso-8859-1"?>
<!-- Generator: Adobe Illustrator 18.0.0, SVG Export Plug-In . SVG Version: 6.00 Build 0)  -->
<!DOCTYPE svg PUBLIC "-//W3C//DTD SVG 1.1//EN" "http://www.w3.org/Graphics/SVG/1.1/DTD/svg11.dtd">
<svg width="100px" height="100px" version="1.1" id="Capa_1" xmlns="http://www.w3.org/2000/svg" xmlns:xlink="http://www.w3.org/1999/xlink" x="0px" y="0px"
	 viewBox="0 0 464.832 464.832" style="enable-background:new 0 0 464.832 464.832;" xml:space="preserve">
<g>
	<path style="stroke:#000000;stroke-width:0;stroke-linecap:round;stroke-linejoin:round;" d="M457.749,251.44h-4.646h-10.257
		l-4.002-17.813l6.629-5.434c-2.547-6.1-4.889-10.111-4.889-10.111l-55.828-15.08l-62.067-49.004c-3.099,0-16.026,0-32.211,0
		l-8.728-13.383h-35.552l-8.727,13.383c-17.89,0-31.441,0-31.441,0l-84.608,45.193L17.632,220.884c0,0-4.068,11.576-5.475,18.301
		h40.153l-10.052,12.146H11.684c0,0.035,0,0.074,0,0.109H3.083L0,265.243l17,24.26l44.689-0.01
		c3.845,19.758,21.274,34.723,42.141,34.723c20.873,0,38.306-14.975,42.142-34.742l162.826-0.037
		c3.822,19.786,21.265,34.779,42.151,34.779c20.893,0,38.339-15.003,42.153-34.799l58.621-0.014l13.107-24.16L457.749,251.44z
		 M103.83,303.681c-12.353,0-22.402-10.05-22.402-22.402c0-12.352,10.05-22.402,22.402-22.402c12.353,0,22.401,10.05,22.401,22.402
		C126.231,293.631,116.183,303.681,103.83,303.681z M160.517,234.679h-7.338v-7.338h-7.336v7.338h-7.338v-7.338h-7.336v7.338h-7.338
		v-7.338h-7.336v7.338h-7.338v-7.338h7.338v-7.336h7.336v7.336h7.338v-7.336h7.336v7.336h7.338v-7.336h7.336v7.336h7.338V234.679z
		 M222.275,169.184h85.162l39.228,31.5H160.919L222.275,169.184z M197.98,260.831h-8.419V230.55h-9.354v-6.619h27.176v6.619h-9.403
		V260.831z M229.162,260.831l-1.977-7.949h-9.921l-1.929,7.949h-9.039l10.13-37h11.59l10.138,37H229.162z M271.618,260.831h-9.353
		l-6.546-13.767l-6.55,13.767h-9.305l9.874-19.354l-9.874-17.547h9.774l6.08,12.25l6.133-12.25h9.766l-9.87,17.547L271.618,260.831z
		 M284.194,260.831h-8.419v-36.9h8.419V260.831z M326.327,234.679h-7.338v-7.338h-7.336v7.338h-7.338v-7.338h7.338v-7.336h7.336
		v7.336h7.338v-7.336h7.336v7.336h7.338v-7.336h7.336v7.336h7.338v7.338h-7.338v-7.338h-7.336v7.338h-7.338v-7.338h-7.336V234.679z
		 M350.95,303.681c-12.353,0-22.403-10.05-22.403-22.402c0-12.352,10.05-22.402,22.403-22.402c12.353,0,22.402,10.05,22.402,22.402
		C373.353,293.631,363.303,303.681,350.95,303.681z"/>
	<polygon style="stroke:#000000;stroke-width:0;stroke-linecap:round;stroke-linejoin:round;" points="218.87,246.261 
		225.52,246.261 222.196,232.681 	"/>
</g>
<g>
</g>
<g>
</g>
<g>
</g>
<g>
</g>
<g>
</g>
<g>
</g>
<g>
</g>
<g>
</g>
<g>
</g>
<g>
</g>
<g>
</g>
<g>
</g>
<g>
</g>
<g>
</g>
<g>
</g>
</svg>
