<?xml version="1.0" encoding="utf-8"?>
<!-- Svg Vector Icons : http://www.onlinewebfonts.com/icon -->
<!DOCTYPE svg PUBLIC "-//W3C//DTD SVG 1.1//EN" "http://www.w3.org/Graphics/SVG/1.1/DTD/svg11.dtd">
<svg version="1.1" width="100px" height="100px" xmlns="http://www.w3.org/2000/svg" xmlns:xlink="http://www.w3.org/1999/xlink" x="0px" y="0px" viewBox="0 0 1000 1000" enable-background="new 0 0 1000 1000" xml:space="preserve">
<metadata> Svg Vector Icons : http://www.onlinewebfonts.com/icon </metadata>
<g><g transform="translate(0.000000,511.000000) scale(0.100000,-0.100000)"><path d="M4576,2367.9c-801.1-7.9-1511.6-19.7-1576.5-27.5c-116.1-13.8-127.9-21.7-285.4-163.4c-90.5-82.7-505.8-478.3-919.1-879.8C1045,572.9,1037.1,565,763.6,397.7C612,305.2,440.8,193,383.7,149.7C255.8,49.3,238.1-11.7,222.3-407.3c-9.8-267.7-13.8-289.3-59-336.6c-41.3-43.3-49.2-76.8-59-228.3c-5.9-96.4-5.9-226.3,2-287.4c13.8-104.3,19.7-114.2,106.3-171.2c122-80.7,255.9-120,462.5-131.9l171.2-11.8v118.1c0,480.2,490.1,881.7,976.2,799.1c387.7-66.9,688.9-389.7,712.5-765.6l9.8-145.7h2294.9h2296.9l23.6,159.4c29.5,210.6,94.5,346.4,232.2,492.1c338.5,352.3,868,360.2,1214.4,15.8c149.6-151.6,228.3-318.9,244.1-519.6l11.8-147.6h488.1c482.2,0,488.1,0,517.7,43.3c25.6,35.4,31.5,104.3,31.5,336.6v291.3l-57.1,31.5l-55.1,33.5l-11.8,807c-11.8,785.3-41.3,1358.1-102.4,2009.5c-29.5,293.3-35.4,318.8-80.7,360.2l-49.2,43.3l-1755.6-3.9C6821.7,2381.7,5377.1,2373.8,4576,2367.9z M3027,1301.1c17.7-17.7,23.6-143.7,23.6-442.8c0-393.6-2-419.2-37.4-438.9c-25.6-11.8-350.4-19.7-921.1-19.7c-909.3,0-931,2-931,76.8c0,33.5,710.5,755.8,797.1,810.9c53.1,33.5,104.3,37.4,553.1,37.4C2867.6,1324.7,3009.3,1318.8,3027,1301.1z"/><path d="M1442.6-881.6c-139.7-53.1-287.4-190.9-354.3-328.7c-45.3-96.5-53.1-137.8-55.1-289.3c0-212.6,37.4-311,175.2-458.6c391.7-419.2,1102.2-169.3,1149.4,399.5c23.6,295.2-153.5,578.7-425.1,679C1794.9-826.5,1580.4-828.5,1442.6-881.6z M1840.2-1153.2c293.3-135.8,309-551.1,25.6-688.9c-259.8-124-553.1,57.1-551.1,340.5c0,118.1,33.5,192.9,116.1,271.6C1548.9-1117.8,1700.4-1088.3,1840.2-1153.2z"/><path d="M1582.3-1379.6c-116.1-98.4-43.3-287.4,110.2-287.4s226.3,188.9,110.2,287.4c-29.5,25.6-78.7,47.2-110.2,47.2S1611.9-1354,1582.3-1379.6z"/><path d="M7792-865.9c-173.2-64.9-324.8-204.7-397.6-366.1c-23.6-55.1-43.3-149.6-49.2-240.1c-7.9-124-2-167.3,39.4-267.7c112.2-277.5,328.7-425.1,625.9-425.1c261.8-2,476.3,133.8,594.4,375.9c57.1,114.2,64.9,149.6,64.9,289.3c0,139.7-7.9,173.2-64.9,289.3c-70.9,143.7-171.2,244-316.9,314.9C8177.8-840.3,7904.2-824.6,7792-865.9z M8168-1159.2c236.2-122,291.3-405.4,116.1-596.4c-94.5-102.4-183.1-135.8-316.9-124c-374,37.4-468.4,545.2-129.9,712.5C7963.3-1104,8053.8-1102.1,8168-1159.2z"/><path d="M7890.5-1389.4c-63-64.9-70.9-114.2-27.6-196.8c47.2-92.5,163.4-110.2,253.9-39.4c39.4,31.5,51.2,57.1,51.2,118.1C8168-1344.2,8004.6-1275.3,7890.5-1389.4z"/></g></g>
</svg>